<svg width="25" height="25" viewBox="0 0 25 25" fill="none" xmlns="http://www.w3.org/2000/svg">
<path d="M21.5088 10.8008H12.688V14.4263H17.727C17.5098 15.5981 16.8506 16.5894 15.8569 17.2534C15.0171 17.8149 13.9453 18.147 12.6855 18.147C10.2466 18.147 8.18359 16.499 7.44629 14.2847C7.26074 13.7231 7.15332 13.1226 7.15332 12.5049C7.15332 11.8872 7.26074 11.2866 7.44629 10.7251C8.18604 8.51318 10.249 6.86523 12.688 6.86523C14.0625 6.86523 15.2954 7.33887 16.2671 8.2666L18.9526 5.57861C17.3291 4.06494 15.2124 3.13721 12.688 3.13721C9.02832 3.13721 5.86182 5.23682 4.32129 8.29834C3.68652 9.56299 3.3252 10.9937 3.3252 12.5073C3.3252 14.021 3.68652 15.4492 4.32129 16.7139C5.86182 19.7754 9.02832 21.875 12.688 21.875C15.2173 21.875 17.3364 21.0352 18.8843 19.6045C20.6543 17.9736 21.6772 15.5713 21.6772 12.7173C21.6772 12.0532 21.6187 11.416 21.5088 10.8008Z" fill="black"/>
</svg>
