<svg width="27" height="26" viewBox="0 0 27 26" fill="none" xmlns="http://www.w3.org/2000/svg">
<path d="M0.0244823 0.614989C0.0767021 0.406239 0.209512 0.226764 0.393755 0.115961C0.577999 0.00515808 0.798621 -0.0279189 1.0072 0.0239906L4.25552 0.837375C4.41026 0.876138 4.55022 0.959545 4.65803 1.07725C4.76584 1.19495 4.83676 1.34176 4.86199 1.49946L5.27373 4.10614H14.9907L26.9835 4C27.009 3.89078 27.0017 4.11068 26.9835 4L23.5244 17.2594L22.7121 20.5079C22.709 20.5302 22.6928 20.5515 22.6847 20.5718C22.6725 20.6114 22.6533 20.647 22.637 20.6825C22.61 20.7349 22.577 20.784 22.5387 20.8288C22.5143 20.8612 22.4869 20.8846 22.4585 20.912C22.4117 20.954 22.3599 20.9902 22.3044 21.0197C22.2729 21.0359 22.2486 21.0542 22.2172 21.0674C22.1259 21.0989 22.0275 21.1222 21.9281 21.1222H4.8701C4.65537 21.1217 4.44963 21.0358 4.29808 20.8835C4.14653 20.7312 4.06155 20.5249 4.06182 20.3099C4.06142 20.2033 4.08202 20.0976 4.12245 19.999C4.16288 19.9004 4.22234 19.8108 4.29742 19.7352C4.3725 19.6597 4.46174 19.5997 4.56 19.5587C4.65827 19.5178 4.76365 19.4966 4.8701 19.4965H21.2943L21.6979 17.8727H6.49376C6.39649 17.8721 6.30008 17.8545 6.20878 17.821C6.17328 17.8057 6.14489 17.7814 6.11345 17.7621C6.06173 17.7377 6.01001 17.7143 5.9664 17.6788C5.93496 17.6514 5.91468 17.6108 5.88324 17.5783C5.8518 17.5387 5.81225 17.5041 5.78385 17.4554C5.76053 17.4117 5.75241 17.364 5.73619 17.3163C5.71996 17.2726 5.70069 17.233 5.68852 17.1893L5.68446 17.17V17.1609L3.34076 2.28542L0.614719 1.60303C0.405639 1.55031 0.22602 1.41662 0.115341 1.23135C0.0046632 1.04607 -0.0280177 0.824379 0.0244823 0.614989ZM22.1066 16.248L24.1664 8.00856L21.6472 7.70798L20.4272 16.248H22.1066ZM18.7863 16.248L20.0347 7.51301L17.5034 7.21142L17.0906 16.248H18.7863ZM13.7713 16.248H15.4629L15.8868 7.01747L13.3555 6.71182L13.7713 16.248ZM10.4591 16.248H12.1436L11.7227 6.51786L9.20763 6.21627L10.4591 16.248ZM7.20671 16.248H8.82326L7.5434 6.01419L5.8163 5.80704L7.20671 16.248ZM18.6798 22.7449C19.5753 22.7449 20.3035 23.4761 20.3035 24.3727C20.3035 24.804 20.1323 25.2177 19.8278 25.5227C19.5232 25.8276 19.11 25.999 18.6793 25.999C18.2485 25.999 17.8354 25.8276 17.5308 25.5227C17.2262 25.2177 17.0551 24.804 17.0551 24.3727C17.0551 23.4761 17.7802 22.7449 18.6798 22.7449ZM8.11843 22.7449C8.33527 22.7396 8.55098 22.7777 8.75287 22.8571C8.95476 22.9365 9.13874 23.0556 9.29397 23.2073C9.4492 23.359 9.57255 23.5402 9.65674 23.7404C9.74093 23.9405 9.78427 24.1555 9.7842 24.3727C9.78414 24.5899 9.74066 24.8049 9.65635 25.005C9.57203 25.2051 9.44857 25.3863 9.29325 25.5379C9.13792 25.6895 8.95387 25.8084 8.75193 25.8877C8.54999 25.967 8.33425 26.005 8.11741 25.9995C7.69342 25.9887 7.29041 25.8125 6.99437 25.5084C6.69832 25.2043 6.5327 24.7964 6.53283 24.3717C6.53297 23.947 6.69885 23.5392 6.99508 23.2353C7.29131 22.9314 7.69443 22.7554 8.11843 22.7449Z" fill="#000000"/>
</svg>
