<svg width="14" height="14" viewBox="0 0 14 14" fill="none" xmlns="http://www.w3.org/2000/svg">
<path d="M9.34679 7.97843L9.63381 6.11583H7.84745V4.91026C7.84745 4.3999 8.09834 3.9016 8.89719 3.9016H9.70607V2.32029C9.70607 2.32029 8.97145 2.19169 8.26895 2.19169C6.7957 2.19169 5.83829 3.08382 5.83829 4.69727V6.11583H4.20447V7.97843H5.83829V12.4792H7.84946V7.97843H9.34679Z" fill="white"/>
<path d="M12.8691 10.217C12.8683 10.9201 12.5886 11.5942 12.0914 12.0914C11.5942 12.5886 10.9201 12.8683 10.217 12.8691H3.78298C3.07986 12.8683 2.40577 12.5886 1.90859 12.0914C1.4114 11.5942 1.13171 10.9201 1.13088 10.217V3.78298C1.13171 3.07986 1.4114 2.40577 1.90859 1.90859C2.40577 1.4114 3.07986 1.13171 3.78298 1.13088H10.217C10.9201 1.13171 11.5942 1.4114 12.0914 1.90859C12.5886 2.40577 12.8683 3.07986 12.8691 3.78298V10.217ZM10.217 0.00105793H3.78298C2.7802 0.00217738 1.81879 0.400955 1.10962 1.10993C0.400446 1.81891 0.00139991 2.7802 0 3.78298V10.217C0.00112001 11.22 0.400043 12.1815 1.10925 12.8908C1.81845 13.6 2.78002 13.9989 3.78298 14H10.217C11.22 13.9989 12.1815 13.6 12.8908 12.8908C13.6 12.1815 13.9989 11.22 14 10.217V3.78298C13.9989 2.78002 13.6 1.81845 12.8908 1.10925C12.1815 0.400043 11.22 0.00112001 10.217 0V0.00105793Z" fill="white"/>
</svg>
