<svg width="31" height="30" viewBox="0 0 31 30" fill="none" xmlns="http://www.w3.org/2000/svg">
<g clip-path="url(#clip0_244_2)">
<path d="M30.6522 15C30.6522 6.71625 23.7899 0 15.3261 0C6.86225 0 0 6.71625 0 15C0 22.4875 5.60424 28.6925 12.9314 29.8175V19.3363H9.03983V14.9987H12.9314V11.6963C12.9314 7.9375 15.22 5.86 18.7208 5.86C20.3964 5.86 22.1513 6.15375 22.1513 6.15375V9.84501H20.2177C18.3134 9.84501 17.7195 11.0012 17.7195 12.1875V15H21.9699L21.2905 19.3375H17.7195V29.8187C25.0479 28.6925 30.6522 22.4863 30.6522 15Z" fill="black"/>
</g>
<defs>
<clipPath id="clip0_244_2">
<rect width="30.6522" height="30" fill="white"/>
</clipPath>
</defs>
</svg>
