<svg width="20" height="26" viewBox="0 0 20 26" fill="none" xmlns="http://www.w3.org/2000/svg">
<path fill-rule="evenodd" clip-rule="evenodd" d="M19.9389 16.377C20.0236 15.5412 20.0162 14.7121 19.9416 13.9062C19.587 10.0694 17.6982 6.62588 16.6919 5.0625L14.9081 2.29163V5.62182C14.9081 5.96671 14.853 6.42327 14.7621 6.93216C13.8614 4.98893 12.7275 3.59215 11.6835 2.61602C10.5338 1.54101 9.50589 0.986094 9.03029 0.762397C8.58231 0.5517 8.11598 0.38378 7.65047 0.216153C7.45324 0.145132 7.25613 0.0741538 7.06063 0L7.46966 1.81749C7.94245 3.91822 8.03788 5.37752 7.89118 6.53661C7.84454 6.90507 7.77343 7.24318 7.6822 7.56193C7.45349 8.36101 7.09175 9.07438 6.59632 9.87593C6.4989 9.61709 6.38749 9.35658 6.26158 9.09479C5.93038 8.40612 5.49892 7.70847 4.9582 7.00853L3.55231 5.18864L3.23404 7.49582C2.9321 9.68463 2.34174 10.8681 1.76938 11.8239C1.67519 11.9813 1.57581 12.1398 1.47424 12.3019C0.964494 13.1154 0.399382 14.0174 0.156238 15.2889C0.0866364 15.6536 0.0406401 16.0167 0.0175401 16.377C-0.215429 20.0109 1.88356 23.3621 5.64488 25.1823C6.61115 25.6499 8.08081 25.9472 9.53295 25.9936C10.9762 26.0397 12.6016 25.8449 13.8162 25.1499C16.3833 23.6808 18.0273 21.8709 18.9711 19.8891C19.5203 18.7356 19.8202 17.5497 19.9389 16.377ZM1.98005 17.5333C1.94233 17.1508 1.93938 16.7644 1.97137 16.377C1.99054 16.1449 2.02222 15.9124 2.06651 15.6803C2.14408 15.2749 2.27287 14.8871 2.43374 14.5101C2.70063 13.8846 3.05585 13.2889 3.41195 12.6916C3.8842 11.8996 4.35802 11.1049 4.62952 10.2348C4.76647 10.5461 4.87483 10.8486 4.9579 11.1413C5.08377 11.5848 5.15165 12.0057 5.17309 12.4004L5.33101 15.3066L6.94286 12.922C7.01468 12.8158 7.08607 12.7105 7.15693 12.606L7.15852 12.6036L7.15916 12.6027C8.17686 11.1017 9.08232 9.76623 9.54922 8.13502C9.92093 6.83637 10.0058 5.40309 9.77018 3.58688C9.96477 3.742 10.1689 3.91677 10.3786 4.1128C11.6631 5.31382 13.1734 7.32935 13.964 10.5739L14.7788 13.9175L15.8318 10.6461C15.9857 10.1678 16.2061 9.41192 16.4022 8.596C17.1262 10.1351 17.8161 12.0737 18.0032 14.0984C18.0734 14.8573 18.0723 15.6212 17.9786 16.377C17.868 17.2687 17.6284 18.1491 17.2245 18.9971C16.5801 20.3503 15.4903 21.6783 13.7316 22.8546C13.6907 22.4247 13.5816 22.0063 13.4049 21.6065C13.1808 21.0986 12.8551 20.6428 12.4481 20.2675L12.1123 19.957C12.1009 19.9468 12.0872 19.9396 12.0723 19.9359C12.0575 19.9323 12.042 19.9323 12.0271 19.936C12.0123 19.9399 11.9987 19.9474 11.9874 19.9576C11.976 19.968 11.9674 19.981 11.9622 19.9955L11.8122 20.4291C11.7187 20.701 11.5468 20.9788 11.3032 21.252C11.2871 21.2694 11.2686 21.2741 11.2559 21.2752C11.2432 21.2765 11.2236 21.2741 11.2063 21.2579C11.1901 21.2438 11.1821 21.223 11.1832 21.202C11.2259 20.5023 11.0182 19.713 10.5635 18.8539C10.1872 18.1403 9.66441 17.5835 9.01118 17.1952L8.53452 16.9128C8.4722 16.8756 8.39257 16.9244 8.39604 16.9976L8.42141 17.5556C8.43873 17.9368 8.39488 18.2739 8.291 18.5541C8.16406 18.897 7.9817 19.2155 7.74857 19.5015C7.58632 19.7002 7.40243 19.88 7.20036 20.0372C6.71368 20.414 6.31795 20.8969 6.04279 21.4495C5.81802 21.9062 5.68143 22.4004 5.63915 22.9062C3.41258 21.5632 2.18469 19.6073 1.98005 17.5333Z" fill="#F9C449"/>
</svg>
