<svg width="22" height="22" viewBox="0 0 22 22" fill="none" xmlns="http://www.w3.org/2000/svg">
<path d="M8.89486 2.62994C10.5678 2.62994 12.1411 3.28118 13.3257 4.46406C13.9087 5.04482 14.3707 5.73548 14.685 6.49604C14.9992 7.25659 15.1595 8.07194 15.1565 8.89486C15.1592 9.71748 14.9988 10.5325 14.6845 11.2927C14.3703 12.053 13.9084 12.7434 13.3257 13.324C12.7451 13.9075 12.0546 14.3701 11.294 14.685C10.5335 14.9998 9.71799 15.1606 8.89486 15.1581C8.07173 15.1605 7.2563 14.9997 6.49576 14.6848C5.73521 14.37 5.04466 13.9075 4.46406 13.324C3.88021 12.7436 3.41732 12.0531 3.1022 11.2925C2.78708 10.532 2.626 9.71645 2.62827 8.8932C2.62827 7.22022 3.28118 5.64693 4.46406 4.4624C5.04472 3.879 5.73528 3.41651 6.49581 3.10169C7.25634 2.78687 8.07174 2.62596 8.89486 2.62828V2.62994ZM20.9495 19.0905L16.0436 14.1829C18.6054 10.7107 18.303 5.72502 15.1847 2.60502C14.3605 1.77656 13.3803 1.11976 12.3007 0.672616C11.221 0.225475 10.0634 -0.00312852 8.89486 3.23354e-05C6.51914 3.23354e-05 4.28463 0.9254 2.60502 2.60502C1.77656 3.42916 1.11976 4.40941 0.672616 5.48906C0.225475 6.5687 -0.00312852 7.72629 3.23354e-05 8.89486C-0.00312852 10.0634 0.225475 11.221 0.672616 12.3007C1.11976 13.3803 1.77656 14.3606 2.60502 15.1847C3.42905 16.0133 4.40928 16.6702 5.48895 17.1174C6.56861 17.5645 7.72626 17.793 8.89486 17.7897C10.8187 17.7897 12.6611 17.1766 14.1846 16.0453L19.0905 20.9496C19.3397 21.1988 19.6687 21.3333 20.0209 21.3333C20.193 21.334 20.3635 21.3006 20.5226 21.235C20.6817 21.1695 20.8263 21.073 20.9479 20.9512C21.0705 20.8294 21.1677 20.6844 21.2339 20.5247C21.3001 20.365 21.3339 20.1937 21.3333 20.0209C21.3341 19.8481 21.3005 19.6769 21.2347 19.5172C21.1688 19.3575 21.0719 19.2125 20.9495 19.0905V19.0905Z" fill="#F9C449"/>
</svg>
