<svg width="21" height="20" viewBox="0 0 21 20" fill="none" xmlns="http://www.w3.org/2000/svg">
<path d="M20.086 6.81853L14.3024 6.2706C13.9385 6.23743 13.6235 6.00526 13.4739 5.65634L11.4027 0.622882C11.0718 -0.207627 9.89526 -0.207627 9.56439 0.622882L7.50905 5.65634C7.37671 6.00526 7.04451 6.23743 6.68055 6.2706L0.896996 6.81853C0.0354171 6.90212 -0.312659 7.98072 0.334517 8.56314L4.6927 12.3999C4.97328 12.6493 5.08974 13.0142 5.00636 13.3804L3.69745 18.7614C3.49893 19.6092 4.4108 20.3057 5.17312 19.8586L9.99453 17.0168C10.3095 16.8351 10.6907 16.8351 11.0057 17.0168L15.8271 19.8586C16.5894 20.3057 17.5012 19.6251 17.3027 18.7614L16.0097 13.3804C15.9263 13.0142 16.0428 12.6493 16.3247 12.3999L20.6829 8.56314C21.3128 7.98072 20.9476 6.90212 20.086 6.81853Z" fill="#F9C449"/>
</svg>
