<svg width="95" height="24" viewBox="0 0 95 24" fill="none" xmlns="http://www.w3.org/2000/svg">
<path d="M0 16H95V19H0V16Z" fill="url(#paint0_linear_250_11)"/>
<path d="M0 5.04H9.45V6.552H5.58V17.64H3.87V6.552H0V5.04Z" fill="#F9C449"/>
<path d="M9.80859 11.472C9.80859 10.544 9.95259 9.68 10.2406 8.88C10.5286 8.064 10.9286 7.36 11.4406 6.768C11.9686 6.176 12.5926 5.712 13.3126 5.376C14.0486 5.04 14.8486 4.872 15.7126 4.872C16.4326 4.872 17.0806 5 17.6566 5.256C18.2486 5.496 18.7606 5.8 19.1926 6.168V5.16H21.1606V14.616C21.1606 15.224 21.3046 15.624 21.5926 15.816C21.8966 15.992 22.2246 16.08 22.5766 16.08L22.1206 17.76C20.5846 17.76 19.6566 17.136 19.3366 15.888C19.1446 16.144 18.9206 16.4 18.6646 16.656C18.4246 16.896 18.1446 17.112 17.8246 17.304C17.5046 17.496 17.1446 17.648 16.7446 17.76C16.3446 17.872 15.9046 17.928 15.4246 17.928C14.6406 17.928 13.9046 17.776 13.2166 17.472C12.5446 17.168 11.9526 16.736 11.4406 16.176C10.9446 15.616 10.5446 14.944 10.2406 14.16C9.95259 13.36 9.80859 12.464 9.80859 11.472ZM15.9046 16.008C16.5126 16.008 17.0886 15.864 17.6326 15.576C18.1766 15.288 18.6326 14.912 19.0006 14.448V7.752C18.5686 7.448 18.0886 7.208 17.5606 7.032C17.0486 6.84 16.5046 6.744 15.9286 6.744C15.3526 6.744 14.8246 6.856 14.3446 7.08C13.8646 7.304 13.4486 7.624 13.0966 8.04C12.7606 8.44 12.4966 8.928 12.3046 9.504C12.1126 10.08 12.0166 10.712 12.0166 11.4C12.0166 12.072 12.1126 12.696 12.3046 13.272C12.4966 13.832 12.7686 14.32 13.1206 14.736C13.4726 15.136 13.8806 15.448 14.3446 15.672C14.8246 15.896 15.3446 16.008 15.9046 16.008Z" fill="#F9C449"/>
<path d="M25.1611 5.076C25.5811 5.028 26.0971 4.986 26.7091 4.95C27.3331 4.914 28.0531 4.896 28.8691 4.896C30.4171 4.896 31.5991 5.184 32.4151 5.76C33.2431 6.336 33.6571 7.128 33.6571 8.136C33.6571 8.808 33.4831 9.372 33.1351 9.828C32.7871 10.284 32.2711 10.662 31.5871 10.962C32.4031 11.25 33.0211 11.646 33.4411 12.15C33.8611 12.654 34.0711 13.284 34.0711 14.04C34.0711 15.192 33.6211 16.104 32.7211 16.776C31.8331 17.448 30.5251 17.784 28.7971 17.784C28.0651 17.784 27.3691 17.766 26.7091 17.73C26.0611 17.706 25.5451 17.664 25.1611 17.604V5.076ZM28.9231 16.362C30.0031 16.362 30.8371 16.17 31.4251 15.786C32.0251 15.402 32.3251 14.844 32.3251 14.112C32.3251 13.392 32.0311 12.828 31.4431 12.42C30.8551 12.012 30.0151 11.808 28.9231 11.808H26.8711V16.254C27.4951 16.326 28.1791 16.362 28.9231 16.362ZM28.8511 10.476C29.7991 10.476 30.5491 10.284 31.1011 9.9C31.6651 9.504 31.9471 8.988 31.9471 8.352C31.9471 7.668 31.6711 7.152 31.1191 6.804C30.5671 6.456 29.8111 6.282 28.8511 6.282C28.4551 6.282 28.0951 6.294 27.7711 6.318C27.4471 6.33 27.1471 6.348 26.8711 6.372V10.476H28.8511Z" fill="#F9C449"/>
<path d="M35.959 11.472C35.959 10.544 36.103 9.68 36.391 8.88C36.679 8.064 37.079 7.36 37.591 6.768C38.119 6.176 38.743 5.712 39.463 5.376C40.199 5.04 40.999 4.872 41.863 4.872C42.583 4.872 43.231 5 43.807 5.256C44.399 5.496 44.911 5.8 45.343 6.168V5.16H47.311V14.616C47.311 15.224 47.455 15.624 47.743 15.816C48.047 15.992 48.375 16.08 48.727 16.08L48.271 17.76C46.735 17.76 45.807 17.136 45.487 15.888C45.295 16.144 45.071 16.4 44.815 16.656C44.575 16.896 44.295 17.112 43.975 17.304C43.655 17.496 43.295 17.648 42.895 17.76C42.495 17.872 42.055 17.928 41.575 17.928C40.791 17.928 40.055 17.776 39.367 17.472C38.695 17.168 38.103 16.736 37.591 16.176C37.095 15.616 36.695 14.944 36.391 14.16C36.103 13.36 35.959 12.464 35.959 11.472ZM42.055 16.008C42.663 16.008 43.239 15.864 43.783 15.576C44.327 15.288 44.783 14.912 45.151 14.448V7.752C44.719 7.448 44.239 7.208 43.711 7.032C43.199 6.84 42.655 6.744 42.079 6.744C41.503 6.744 40.975 6.856 40.495 7.08C40.015 7.304 39.599 7.624 39.247 8.04C38.911 8.44 38.647 8.928 38.455 9.504C38.263 10.08 38.167 10.712 38.167 11.4C38.167 12.072 38.263 12.696 38.455 13.272C38.647 13.832 38.919 14.32 39.271 14.736C39.623 15.136 40.031 15.448 40.495 15.672C40.975 15.896 41.495 16.008 42.055 16.008Z" fill="#F9C449"/>
<path d="M51.4067 5.16H53.5667V19.008C53.5667 19.744 53.4627 20.376 53.2547 20.904C53.0467 21.432 52.7667 21.864 52.4147 22.2C52.0627 22.552 51.6467 22.808 51.1667 22.968C50.6867 23.128 50.1747 23.208 49.6307 23.208C48.6547 23.208 47.8387 23.024 47.1827 22.656L47.7107 20.856C47.9187 20.984 48.1747 21.096 48.4787 21.192C48.7667 21.288 49.0627 21.336 49.3667 21.336C50.7267 21.336 51.4067 20.488 51.4067 18.792V5.16ZM52.4867 3.024C52.0707 3.024 51.7107 2.88 51.4067 2.592C51.1187 2.288 50.9747 1.928 50.9747 1.512C50.9747 1.048 51.1107 0.679999 51.3827 0.407999C51.6547 0.136 52.0227 0 52.4867 0C52.9027 0 53.2547 0.152 53.5427 0.456C53.8467 0.744 53.9987 1.096 53.9987 1.512C53.9987 1.976 53.8627 2.344 53.5907 2.616C53.3187 2.888 52.9507 3.024 52.4867 3.024Z" fill="#F9C449"/>
<path d="M56.5137 11.472C56.5137 10.544 56.6577 9.68 56.9457 8.88C57.2337 8.064 57.6337 7.36 58.1457 6.768C58.6737 6.176 59.2977 5.712 60.0177 5.376C60.7537 5.04 61.5537 4.872 62.4177 4.872C63.1377 4.872 63.7857 5 64.3617 5.256C64.9537 5.496 65.4657 5.8 65.8977 6.168V5.16H67.8657V14.616C67.8657 15.224 68.0097 15.624 68.2977 15.816C68.6017 15.992 68.9297 16.08 69.2817 16.08L68.8257 17.76C67.2897 17.76 66.3617 17.136 66.0417 15.888C65.8497 16.144 65.6257 16.4 65.3697 16.656C65.1297 16.896 64.8497 17.112 64.5297 17.304C64.2097 17.496 63.8497 17.648 63.4497 17.76C63.0497 17.872 62.6097 17.928 62.1297 17.928C61.3457 17.928 60.6097 17.776 59.9217 17.472C59.2497 17.168 58.6577 16.736 58.1457 16.176C57.6497 15.616 57.2497 14.944 56.9457 14.16C56.6577 13.36 56.5137 12.464 56.5137 11.472ZM62.6097 16.008C63.2177 16.008 63.7937 15.864 64.3377 15.576C64.8817 15.288 65.3377 14.912 65.7057 14.448V7.752C65.2737 7.448 64.7937 7.208 64.2657 7.032C63.7537 6.84 63.2097 6.744 62.6337 6.744C62.0577 6.744 61.5297 6.856 61.0497 7.08C60.5697 7.304 60.1537 7.624 59.8017 8.04C59.4657 8.44 59.2017 8.928 59.0097 9.504C58.8177 10.08 58.7217 10.712 58.7217 11.4C58.7217 12.072 58.8177 12.696 59.0097 13.272C59.2017 13.832 59.4737 14.32 59.8257 14.736C60.1777 15.136 60.5857 15.448 61.0497 15.672C61.5297 15.896 62.0497 16.008 62.6097 16.008Z" fill="#F9C449"/>
<path d="M78.9342 7.248C78.6302 7.12 78.2702 7.056 77.8542 7.056C77.4062 7.056 76.9662 7.152 76.5342 7.344C76.1182 7.536 75.7422 7.824 75.4062 8.208C75.0862 8.592 74.8222 9.088 74.6142 9.696C74.4222 10.288 74.3262 10.992 74.3262 11.808V17.64H72.1662V5.16H74.2542V7.872C74.3982 7.488 74.5902 7.112 74.8302 6.744C75.0702 6.376 75.3502 6.056 75.6702 5.784C76.0062 5.512 76.3902 5.296 76.8222 5.136C77.2542 4.96 77.7342 4.872 78.2622 4.872C78.5022 4.872 78.7342 4.888 78.9582 4.92C79.1982 4.936 79.4062 4.968 79.5822 5.016L78.9342 7.248Z" fill="#F9C449"/>
<path d="M80.1855 11.472C80.1855 10.544 80.3295 9.68 80.6175 8.88C80.9055 8.064 81.3055 7.36 81.8175 6.768C82.3455 6.176 82.9695 5.712 83.6895 5.376C84.4255 5.04 85.2255 4.872 86.0895 4.872C86.8095 4.872 87.4575 5 88.0335 5.256C88.6255 5.496 89.1375 5.8 89.5695 6.168V5.16H91.5375V14.616C91.5375 15.224 91.6815 15.624 91.9695 15.816C92.2735 15.992 92.6015 16.08 92.9535 16.08L92.4975 17.76C90.9615 17.76 90.0335 17.136 89.7135 15.888C89.5215 16.144 89.2975 16.4 89.0415 16.656C88.8015 16.896 88.5215 17.112 88.2015 17.304C87.8815 17.496 87.5215 17.648 87.1215 17.76C86.7215 17.872 86.2815 17.928 85.8015 17.928C85.0175 17.928 84.2815 17.776 83.5935 17.472C82.9215 17.168 82.3295 16.736 81.8175 16.176C81.3215 15.616 80.9215 14.944 80.6175 14.16C80.3295 13.36 80.1855 12.464 80.1855 11.472ZM86.2815 16.008C86.8895 16.008 87.4655 15.864 88.0095 15.576C88.5535 15.288 89.0095 14.912 89.3775 14.448V7.752C88.9455 7.448 88.4655 7.208 87.9375 7.032C87.4255 6.84 86.8815 6.744 86.3055 6.744C85.7295 6.744 85.2015 6.856 84.7215 7.08C84.2415 7.304 83.8255 7.624 83.4735 8.04C83.1375 8.44 82.8735 8.928 82.6815 9.504C82.4895 10.08 82.3935 10.712 82.3935 11.4C82.3935 12.072 82.4895 12.696 82.6815 13.272C82.8735 13.832 83.1455 14.32 83.4975 14.736C83.8495 15.136 84.2575 15.448 84.7215 15.672C85.2015 15.896 85.7215 16.008 86.2815 16.008Z" fill="#F9C449"/>
<defs>
<linearGradient id="paint0_linear_250_11" x1="47.5" y1="0" x2="47.5" y2="23.208" gradientUnits="userSpaceOnUse">
<stop stop-color="#E96114"/>
<stop offset="1" stop-color="#FFB200"/>
</linearGradient>
</defs>
</svg>
