<svg width="94" height="24" viewBox="0 0 94 24" fill="none" xmlns="http://www.w3.org/2000/svg">
<path d="M0.180054 5.39998H9.63005V6.91198H5.76005V18H4.05005V6.91198H0.180054V5.39998Z" fill="#F9C449"/>
<path d="M9.98865 11.832C9.98865 10.904 10.1326 10.04 10.4206 9.23999C10.7086 8.42399 11.1086 7.71999 11.6206 7.12799C12.1486 6.53599 12.7726 6.07199 13.4926 5.73598C14.2286 5.39999 15.0286 5.23199 15.8926 5.23199C16.6126 5.23199 17.2606 5.35999 17.8366 5.61598C18.4286 5.85598 18.9406 6.15999 19.3726 6.52799V5.51998H21.3406V14.976C21.3406 15.584 21.4846 15.984 21.7726 16.176C22.0766 16.352 22.4046 16.44 22.7566 16.44L22.3006 18.12C20.7646 18.12 19.8366 17.496 19.5166 16.248C19.3246 16.504 19.1006 16.76 18.8446 17.016C18.6046 17.256 18.3246 17.472 18.0046 17.664C17.6846 17.856 17.3246 18.008 16.9246 18.12C16.5246 18.232 16.0846 18.288 15.6046 18.288C14.8206 18.288 14.0846 18.136 13.3966 17.832C12.7246 17.528 12.1326 17.096 11.6206 16.536C11.1246 15.976 10.7246 15.304 10.4206 14.52C10.1326 13.72 9.98865 12.824 9.98865 11.832ZM16.0846 16.368C16.6926 16.368 17.2686 16.224 17.8126 15.936C18.3566 15.648 18.8126 15.272 19.1806 14.808V8.11199C18.7486 7.80799 18.2686 7.56799 17.7406 7.39198C17.2286 7.19999 16.6846 7.10398 16.1086 7.10398C15.5326 7.10398 15.0046 7.21599 14.5246 7.43999C14.0446 7.66399 13.6286 7.98398 13.2766 8.39999C12.9406 8.79998 12.6766 9.28798 12.4846 9.86399C12.2926 10.44 12.1966 11.072 12.1966 11.76C12.1966 12.432 12.2926 13.056 12.4846 13.632C12.6766 14.192 12.9486 14.68 13.3006 15.096C13.6526 15.496 14.0606 15.808 14.5246 16.032C15.0046 16.256 15.5246 16.368 16.0846 16.368Z" fill="#F9C449"/>
<path d="M25.3411 5.43599C25.7611 5.38799 26.2771 5.34599 26.8891 5.30999C27.5131 5.27399 28.2331 5.25599 29.0491 5.25599C30.5971 5.25599 31.7791 5.54399 32.5951 6.11999C33.4232 6.69598 33.8371 7.48799 33.8371 8.49599C33.8371 9.16799 33.6631 9.73199 33.3151 10.188C32.9671 10.644 32.4511 11.022 31.7671 11.322C32.5831 11.61 33.2011 12.006 33.6211 12.51C34.0411 13.014 34.2511 13.644 34.2511 14.4C34.2511 15.552 33.8011 16.464 32.9011 17.136C32.0131 17.808 30.7051 18.144 28.9771 18.144C28.2451 18.144 27.5491 18.126 26.8891 18.09C26.2411 18.066 25.7251 18.024 25.3411 17.964V5.43599ZM29.1031 16.722C30.1831 16.722 31.0171 16.53 31.6051 16.146C32.2051 15.762 32.5051 15.204 32.5051 14.472C32.5051 13.752 32.2111 13.188 31.6231 12.78C31.0351 12.372 30.1951 12.168 29.1031 12.168H27.0511V16.614C27.6751 16.686 28.3591 16.722 29.1031 16.722ZM29.0311 10.836C29.9791 10.836 30.7291 10.644 31.2811 10.26C31.8451 9.86399 32.1271 9.34798 32.1271 8.71198C32.1271 8.02798 31.8511 7.51199 31.2991 7.16398C30.7471 6.81598 29.9911 6.64198 29.0311 6.64198C28.6351 6.64198 28.2751 6.65399 27.9511 6.67799C27.6271 6.68999 27.3271 6.70799 27.0511 6.73199V10.836H29.0311Z" fill="#F9C449"/>
<path d="M36.139 11.832C36.139 10.904 36.283 10.04 36.571 9.23999C36.859 8.42399 37.259 7.71999 37.771 7.12799C38.299 6.53599 38.923 6.07199 39.643 5.73598C40.379 5.39999 41.179 5.23199 42.043 5.23199C42.763 5.23199 43.411 5.35999 43.987 5.61598C44.579 5.85598 45.091 6.15999 45.523 6.52799V5.51998H47.491V14.976C47.491 15.584 47.635 15.984 47.923 16.176C48.227 16.352 48.555 16.44 48.907 16.44L48.451 18.12C46.915 18.12 45.987 17.496 45.667 16.248C45.475 16.504 45.251 16.76 44.995 17.016C44.755 17.256 44.475 17.472 44.155 17.664C43.835 17.856 43.475 18.008 43.075 18.12C42.675 18.232 42.235 18.288 41.755 18.288C40.971 18.288 40.235 18.136 39.547 17.832C38.875 17.528 38.283 17.096 37.771 16.536C37.275 15.976 36.875 15.304 36.571 14.52C36.283 13.72 36.139 12.824 36.139 11.832ZM42.235 16.368C42.843 16.368 43.419 16.224 43.963 15.936C44.507 15.648 44.963 15.272 45.331 14.808V8.11199C44.899 7.80799 44.419 7.56799 43.891 7.39198C43.379 7.19999 42.835 7.10398 42.259 7.10398C41.683 7.10398 41.155 7.21599 40.675 7.43999C40.195 7.66399 39.779 7.98398 39.427 8.39999C39.091 8.79998 38.827 9.28798 38.635 9.86399C38.443 10.44 38.347 11.072 38.347 11.76C38.347 12.432 38.443 13.056 38.635 13.632C38.827 14.192 39.099 14.68 39.451 15.096C39.803 15.496 40.211 15.808 40.675 16.032C41.155 16.256 41.675 16.368 42.235 16.368Z" fill="#F9C449"/>
<path d="M51.5868 5.51998H53.7468V19.368C53.7468 20.104 53.6428 20.736 53.4348 21.264C53.2268 21.792 52.9468 22.224 52.5948 22.56C52.2428 22.912 51.8268 23.168 51.3468 23.328C50.8668 23.488 50.3548 23.568 49.8108 23.568C48.8348 23.568 48.0188 23.384 47.3628 23.016L47.8908 21.216C48.0988 21.344 48.3548 21.456 48.6588 21.552C48.9468 21.648 49.2428 21.696 49.5468 21.696C50.9068 21.696 51.5868 20.848 51.5868 19.152V5.51998ZM52.6668 3.38399C52.2508 3.38399 51.8908 3.23998 51.5868 2.95198C51.2988 2.64798 51.1548 2.28798 51.1548 1.87198C51.1548 1.40798 51.2908 1.03998 51.5628 0.767984C51.8348 0.495985 52.2028 0.359985 52.6668 0.359985C53.0828 0.359985 53.4348 0.511985 53.7228 0.815985C54.0268 1.10399 54.1788 1.45599 54.1788 1.87198C54.1788 2.33599 54.0428 2.70399 53.7708 2.97598C53.4988 3.24798 53.1308 3.38399 52.6668 3.38399Z" fill="#F9C449"/>
<path d="M56.6937 11.832C56.6937 10.904 56.8377 10.04 57.1257 9.23999C57.4137 8.42399 57.8137 7.71999 58.3257 7.12799C58.8537 6.53599 59.4777 6.07199 60.1977 5.73598C60.9337 5.39999 61.7337 5.23199 62.5977 5.23199C63.3177 5.23199 63.9657 5.35999 64.5417 5.61598C65.1337 5.85598 65.6457 6.15999 66.0777 6.52799V5.51998H68.0457V14.976C68.0457 15.584 68.1897 15.984 68.4777 16.176C68.7817 16.352 69.1097 16.44 69.4617 16.44L69.0057 18.12C67.4697 18.12 66.5417 17.496 66.2217 16.248C66.0297 16.504 65.8057 16.76 65.5497 17.016C65.3097 17.256 65.0297 17.472 64.7097 17.664C64.3897 17.856 64.0297 18.008 63.6297 18.12C63.2297 18.232 62.7897 18.288 62.3097 18.288C61.5257 18.288 60.7897 18.136 60.1017 17.832C59.4297 17.528 58.8377 17.096 58.3257 16.536C57.8297 15.976 57.4297 15.304 57.1257 14.52C56.8377 13.72 56.6937 12.824 56.6937 11.832ZM62.7897 16.368C63.3977 16.368 63.9737 16.224 64.5177 15.936C65.0617 15.648 65.5177 15.272 65.8857 14.808V8.11199C65.4537 7.80799 64.9737 7.56799 64.4457 7.39198C63.9337 7.19999 63.3897 7.10398 62.8137 7.10398C62.2377 7.10398 61.7097 7.21599 61.2297 7.43999C60.7497 7.66399 60.3337 7.98398 59.9817 8.39999C59.6457 8.79998 59.3817 9.28798 59.1897 9.86399C58.9977 10.44 58.9017 11.072 58.9017 11.76C58.9017 12.432 58.9977 13.056 59.1897 13.632C59.3817 14.192 59.6537 14.68 60.0057 15.096C60.3577 15.496 60.7657 15.808 61.2297 16.032C61.7097 16.256 62.2297 16.368 62.7897 16.368Z" fill="#F9C449"/>
<path d="M79.1142 7.60799C78.8102 7.47999 78.4502 7.41599 78.0342 7.41599C77.5862 7.41599 77.1462 7.51199 76.7142 7.70399C76.2982 7.89599 75.9222 8.18399 75.5862 8.56799C75.2662 8.95199 75.0022 9.44798 74.7942 10.056C74.6022 10.648 74.5062 11.352 74.5062 12.168V18H72.3462V5.51998H74.4342V8.23199C74.5782 7.84799 74.7702 7.47198 75.0102 7.10398C75.2502 6.73598 75.5302 6.41599 75.8502 6.14399C76.1862 5.87198 76.5702 5.65598 77.0022 5.49599C77.4342 5.31999 77.9142 5.23199 78.4422 5.23199C78.6822 5.23199 78.9142 5.24799 79.1382 5.27998C79.3782 5.29598 79.5862 5.32798 79.7622 5.37599L79.1142 7.60799Z" fill="#F9C449"/>
<path d="M80.3656 11.832C80.3656 10.904 80.5096 10.04 80.7976 9.23999C81.0856 8.42399 81.4856 7.71999 81.9976 7.12799C82.5256 6.53599 83.1496 6.07199 83.8696 5.73598C84.6056 5.39999 85.4056 5.23199 86.2696 5.23199C86.9896 5.23199 87.6376 5.35999 88.2136 5.61598C88.8056 5.85598 89.3176 6.15999 89.7496 6.52799V5.51998H91.7176V14.976C91.7176 15.584 91.8616 15.984 92.1496 16.176C92.4536 16.352 92.7816 16.44 93.1336 16.44L92.6776 18.12C91.1416 18.12 90.2136 17.496 89.8936 16.248C89.7016 16.504 89.4776 16.76 89.2216 17.016C88.9816 17.256 88.7016 17.472 88.3816 17.664C88.0616 17.856 87.7016 18.008 87.3016 18.12C86.9016 18.232 86.4616 18.288 85.9816 18.288C85.1976 18.288 84.4616 18.136 83.7736 17.832C83.1016 17.528 82.5096 17.096 81.9976 16.536C81.5016 15.976 81.1016 15.304 80.7976 14.52C80.5096 13.72 80.3656 12.824 80.3656 11.832ZM86.4616 16.368C87.0696 16.368 87.6456 16.224 88.1896 15.936C88.7336 15.648 89.1896 15.272 89.5576 14.808V8.11199C89.1256 7.80799 88.6456 7.56799 88.1176 7.39198C87.6056 7.19999 87.0616 7.10398 86.4856 7.10398C85.9096 7.10398 85.3816 7.21599 84.9016 7.43999C84.4216 7.66399 84.0056 7.98398 83.6536 8.39999C83.3176 8.79998 83.0536 9.28798 82.8616 9.86399C82.6696 10.44 82.5736 11.072 82.5736 11.76C82.5736 12.432 82.6696 13.056 82.8616 13.632C83.0536 14.192 83.3256 14.68 83.6776 15.096C84.0296 15.496 84.4376 15.808 84.9016 16.032C85.3816 16.256 85.9016 16.368 86.4616 16.368Z" fill="#F9C449"/>
</svg>
