<svg width="14" height="14" viewBox="0 0 14 14" fill="none" xmlns="http://www.w3.org/2000/svg">
<path d="M10.6606 3.74649C10.5845 3.70712 10.5104 3.66397 10.4386 3.61718C10.2298 3.47905 10.0383 3.31629 9.86838 3.1324C9.44312 2.64551 9.28429 2.15156 9.22579 1.80572H9.22814C9.17927 1.51866 9.19948 1.33293 9.20253 1.33293H7.26562V8.82752C7.26562 8.92815 7.26562 9.0276 7.26139 9.12587C7.26139 9.13809 7.26021 9.14938 7.25951 9.16254C7.25951 9.16795 7.25951 9.17359 7.25833 9.17924C7.25833 9.18065 7.25833 9.18206 7.25833 9.18347C7.23792 9.45237 7.15177 9.71214 7.00748 9.93991C6.86319 10.1677 6.66517 10.3565 6.43085 10.4897C6.18663 10.6287 5.91041 10.7017 5.62944 10.7013C4.727 10.7013 3.9956 9.96495 3.9956 9.05557C3.9956 8.1462 4.727 7.40986 5.62944 7.40986C5.80026 7.4097 5.97004 7.4366 6.13246 7.48956L6.13481 5.51611C5.64174 5.45237 5.14082 5.49159 4.66365 5.63127C4.18648 5.77095 3.74342 6.00808 3.36242 6.32768C3.02857 6.61794 2.74791 6.96427 2.53305 7.35108C2.45129 7.49214 2.1428 8.05897 2.10544 8.97893C2.08195 9.50109 2.23866 10.0421 2.31337 10.2656V10.2703C2.36036 10.402 2.54245 10.8513 2.83919 11.23C3.07847 11.5338 3.36117 11.8007 3.67819 12.0221V12.0174L3.68289 12.0221C4.62057 12.6597 5.66021 12.6178 5.66021 12.6178C5.84018 12.6106 6.44306 12.6178 7.1277 12.2932C7.88706 11.9332 8.31936 11.397 8.31936 11.397C8.59554 11.0765 8.81515 10.7114 8.96876 10.3171C9.14403 9.8561 9.20253 9.30313 9.20253 9.08214V5.10609C9.22603 5.12019 9.53898 5.32732 9.53898 5.32732C9.53898 5.32732 9.98984 5.6165 10.6933 5.80481C11.1979 5.93882 11.8779 5.96703 11.8779 5.96703V4.04296C11.6397 4.06882 11.1559 3.99358 10.6606 3.74649Z" fill="white"/>
<path d="M12.8691 10.217C12.8683 10.9201 12.5886 11.5942 12.0914 12.0914C11.5942 12.5886 10.9201 12.8683 10.217 12.8691H3.78298C3.07986 12.8683 2.40577 12.5886 1.90859 12.0914C1.4114 11.5942 1.13171 10.9201 1.13088 10.217V3.78298C1.13171 3.07986 1.4114 2.40577 1.90859 1.90859C2.40577 1.4114 3.07986 1.13171 3.78298 1.13087H10.217C10.9201 1.13171 11.5942 1.4114 12.0914 1.90859C12.5886 2.40577 12.8683 3.07986 12.8691 3.78298V10.217ZM10.217 0.00105793H3.78298C2.7802 0.00217738 1.81879 0.400955 1.10962 1.10993C0.400446 1.81891 0.00139991 2.7802 0 3.78298V10.217C0.00112001 11.22 0.400043 12.1815 1.10925 12.8908C1.81845 13.6 2.78002 13.9989 3.78298 14H10.217C11.22 13.9989 12.1815 13.6 12.8908 12.8908C13.6 12.1815 13.9989 11.22 14 10.217V3.78298C13.9989 2.78002 13.6 1.81845 12.8908 1.10925C12.1815 0.400043 11.22 0.00112001 10.217 0V0.00105793Z" fill="white"/>
</svg>
