<svg width="27" height="30" viewBox="0 0 27 30" fill="none" xmlns="http://www.w3.org/2000/svg">
<path d="M22.5564 6.41593C22.3557 6.31128 22.1604 6.19656 21.9711 6.0722C21.4208 5.705 20.9161 5.27233 20.4681 4.78351C19.3472 3.4892 18.9286 2.17614 18.7744 1.25681H18.7806C18.6518 0.493725 18.705 0 18.7131 0H13.6077V19.9228C13.6077 20.1902 13.6077 20.4546 13.5965 20.7158C13.5965 20.7483 13.5934 20.7783 13.5916 20.8133C13.5916 20.8277 13.5916 20.8427 13.5885 20.8577C13.5885 20.8615 13.5885 20.8652 13.5885 20.869C13.5347 21.5838 13.3076 22.2743 12.9273 22.8798C12.5469 23.4853 12.025 23.9872 11.4073 24.3413C10.7636 24.7109 10.0356 24.9047 9.29495 24.9038C6.91627 24.9038 4.98843 22.9464 4.98843 20.529C4.98843 18.1116 6.91627 16.1542 9.29495 16.1542C9.74523 16.1538 10.1927 16.2253 10.6208 16.3661L10.627 11.1201C9.32738 10.9506 8.00703 11.0549 6.74929 11.4262C5.49155 11.7975 4.32371 12.4279 3.31945 13.2775C2.43948 14.049 1.69969 14.9697 1.13336 15.998C0.917853 16.3729 0.104729 17.8797 0.00626215 20.3252C-0.0556666 21.7133 0.357398 23.1513 0.554331 23.7457V23.7582C0.678189 24.1082 1.15814 25.3025 1.9403 26.3093C2.571 27.1169 3.31616 27.8264 4.15177 28.4148V28.4023L4.16416 28.4148C6.63573 30.1097 9.37608 29.9985 9.37608 29.9985C9.85045 29.9791 11.4395 29.9985 13.2441 29.1354C15.2457 28.1786 16.3852 26.753 16.3852 26.753C17.1131 25.9013 17.692 24.9305 18.0969 23.8826C18.5589 22.657 18.7131 21.1871 18.7131 20.5996V10.0301C18.775 10.0676 19.5999 10.6182 19.5999 10.6182C19.5999 10.6182 20.7883 11.3869 22.6424 11.8875C23.9727 12.2438 25.7649 12.3188 25.7649 12.3188V7.20402C25.1369 7.27276 23.8618 7.07277 22.5564 6.41593Z" fill="black"/>
</svg>
