<svg width="26" height="26" viewBox="0 0 26 26" fill="none" xmlns="http://www.w3.org/2000/svg">
<path d="M17.55 16.0797C18.8147 15.3161 19.8589 14.2392 20.5805 12.954C21.3021 11.6688 21.6766 10.2194 21.6672 8.74714C21.6833 7.60425 21.471 6.46959 21.0427 5.40906C20.6144 4.34854 19.9786 3.38331 19.1722 2.56945C18.3659 1.75559 17.4051 1.10934 16.3456 0.668245C15.2862 0.227148 14.1493 0 13.0008 0C11.8524 0 10.7155 0.227148 9.65605 0.668245C8.59661 1.10934 7.6358 1.75559 6.82946 2.56945C6.02312 3.38331 5.38732 4.34854 4.959 5.40906C4.53069 6.46959 4.3184 7.60425 4.33446 8.74714C4.32495 10.2192 4.69912 11.6686 5.42044 12.9537C6.14177 14.2389 7.18559 15.3159 8.45 16.0797C6.30779 16.8778 4.40656 18.2084 2.92741 19.945C1.44826 21.6815 0.440454 23.766 0 26H2.16723C2.7206 23.5515 4.0948 21.3633 6.06378 19.7954C8.03276 18.2276 10.4793 17.3734 13.0008 17.3734C15.5224 17.3734 17.9689 18.2276 19.9379 19.7954C21.9069 21.3633 23.2811 23.5515 23.8345 26H26C25.5921 23.753 24.5962 21.6528 23.1127 19.9111C21.6291 18.1695 19.7104 16.8479 17.55 16.0797V16.0797ZM6.5 8.74883C6.5 7.4693 6.88122 6.21851 7.59545 5.15462C8.30968 4.09073 9.32484 3.26154 10.5126 2.77188C11.7003 2.28223 13.0072 2.15411 14.2681 2.40374C15.529 2.65336 16.6872 3.26951 17.5962 4.17427C18.5052 5.07903 19.1243 6.23177 19.3751 7.48671C19.6259 8.74165 19.4972 10.0424 19.0052 11.2246C18.5132 12.4067 17.6801 13.4171 16.6112 14.1279C15.5423 14.8388 14.2856 15.2182 13 15.2182C11.2776 15.2133 9.62717 14.5302 8.40925 13.318C7.19133 12.1058 6.50493 10.4631 6.5 8.74883V8.74883Z" fill="#F9C449"/>
</svg>
