<svg width="22" height="25" viewBox="0 0 22 25" fill="none" xmlns="http://www.w3.org/2000/svg">
<path d="M20.5357 3.57143H15.1786V2.23214C15.1786 1.64014 14.9434 1.07239 14.5248 0.65378C14.1062 0.235172 13.5384 0 12.9464 0H8.48214C7.89014 0 7.32239 0.235172 6.90378 0.65378C6.48517 1.07239 6.25 1.64014 6.25 2.23214V3.57143H0.892857C0.656057 3.57143 0.428955 3.6655 0.261512 3.83294C0.0940688 4.00038 0 4.22749 0 4.46429C0 4.70109 0.0940688 4.92819 0.261512 5.09563C0.428955 5.26307 0.656057 5.35714 0.892857 5.35714H1.84152L2.90179 22.3728C2.98103 23.8711 4.12946 25 5.58036 25H15.8482C17.3064 25 18.4319 23.8962 18.5268 22.3772L19.5871 5.35714H20.5357C20.7725 5.35714 20.9996 5.26307 21.1671 5.09563C21.3345 4.92819 21.4286 4.70109 21.4286 4.46429C21.4286 4.22749 21.3345 4.00038 21.1671 3.83294C20.9996 3.6655 20.7725 3.57143 20.5357 3.57143ZM7.17467 21.4286H7.14286C6.91147 21.4287 6.68906 21.339 6.5225 21.1784C6.35594 21.0178 6.25824 20.7988 6.25 20.5675L5.80357 8.06752C5.79514 7.83072 5.88111 7.60027 6.04259 7.42686C6.20407 7.25345 6.42782 7.15129 6.66462 7.14286C6.90142 7.13442 7.13187 7.2204 7.30528 7.38188C7.47869 7.54335 7.58085 7.76711 7.58929 8.00391L8.03571 20.5039C8.03997 20.6212 8.02106 20.7381 7.98008 20.8481C7.93909 20.958 7.87684 21.0588 7.79687 21.1447C7.7169 21.2306 7.62078 21.2999 7.51402 21.3486C7.40726 21.3973 7.29194 21.4245 7.17467 21.4286ZM11.6071 20.5357C11.6071 20.7725 11.5131 20.9996 11.3456 21.1671C11.1782 21.3345 10.9511 21.4286 10.7143 21.4286C10.4775 21.4286 10.2504 21.3345 10.0829 21.1671C9.9155 20.9996 9.82143 20.7725 9.82143 20.5357V8.03571C9.82143 7.79891 9.9155 7.57181 10.0829 7.40437C10.2504 7.23693 10.4775 7.14286 10.7143 7.14286C10.9511 7.14286 11.1782 7.23693 11.3456 7.40437C11.5131 7.57181 11.6071 7.79891 11.6071 8.03571V20.5357ZM13.3929 3.57143H8.03571V2.23214C8.03504 2.17333 8.04613 2.11498 8.06833 2.06051C8.09052 2.00604 8.12338 1.95656 8.16497 1.91497C8.20656 1.87338 8.25604 1.84052 8.31051 1.81833C8.36498 1.79613 8.42333 1.78504 8.48214 1.78571H12.9464C13.0052 1.78504 13.0636 1.79613 13.1181 1.81833C13.1725 1.84052 13.222 1.87338 13.2636 1.91497C13.3052 1.95656 13.338 2.00604 13.3602 2.06051C13.3824 2.11498 13.3935 2.17333 13.3929 2.23214V3.57143ZM15.1786 20.5675C15.1703 20.7988 15.0726 21.0178 14.9061 21.1784C14.7395 21.339 14.5171 21.4287 14.2857 21.4286H14.2533C14.1361 21.4244 14.0209 21.3972 13.9142 21.3484C13.8075 21.2997 13.7114 21.2304 13.6315 21.1445C13.5516 21.0587 13.4894 20.9579 13.4484 20.848C13.4075 20.738 13.3886 20.6211 13.3929 20.5039L13.8393 8.00391C13.8435 7.88665 13.8707 7.77137 13.9194 7.66465C13.9682 7.55792 14.0374 7.46183 14.1233 7.38188C14.2092 7.30192 14.3099 7.23966 14.4198 7.19865C14.5298 7.15764 14.6467 7.13868 14.764 7.14286C14.8812 7.14703 14.9965 7.17426 15.1032 7.22299C15.2099 7.27172 15.306 7.341 15.386 7.42686C15.4659 7.51272 15.5282 7.61349 15.5692 7.72342C15.6102 7.83334 15.6292 7.95027 15.625 8.06752L15.1786 20.5675Z" fill="black"/>
</svg>
